# xmcd
#
# Track frame offsets:
#	182
#	14732
#	32432
#	49157
#	60632
#	76907
#	90257
#	101882
#	115907
#	130682
#	146282
#	162332
#
# Disc length: 2354 seconds
#
# Revision: 1
# Processed by: cddbd v1.5.2PL0 Copyright (c) Steve Scherf et al.
# Submitted via: EasyCDDAExtractor 10.0.1.1
#
DISCID=9309300c
DTITLE=Paul Gibbs - My Heart Has Found A Home
DYEAR=1994
DGENRE=Country
TTITLE0=Not The Only Fool
TTITLE1=Break Down The Walls
TTITLE2=Back To Basics
TTITLE3=Heart Has Found A Home
TTITLE4=Restless Heart
TTITLE5=Up On Top Again
TTITLE6=Back To The Country
TTITLE7=Almost In Love
TTITLE8=Long Tall Cool One
TTITLE9=Full-Time Heartache
TTITLE10=Long Highway
TTITLE11=You're Still The Same
EXTD=
EXTT0=
EXTT1=
EXTT2=
EXTT3=
EXTT4=
EXTT5=
EXTT6=
EXTT7=
EXTT8=
EXTT9=
EXTT10=
EXTT11=
PLAYORDER=
